<?xml version="1.0" encoding="UTF-8"?>
<svg xmlns="http://www.w3.org/2000/svg" xmlns:xlink="http://www.w3.org/1999/xlink" viewBox="0 0 268.8 297.84">
  <defs>
    <style>
      .cls-1 {
        fill: url(#Degradado_sin_nombre_1204-2);
      }

      .cls-1, .cls-2, .cls-3, .cls-4, .cls-5, .cls-6, .cls-7, .cls-8, .cls-9, .cls-10, .cls-11, .cls-12, .cls-13, .cls-14, .cls-15, .cls-16, .cls-17, .cls-18, .cls-19, .cls-20, .cls-21, .cls-22, .cls-23, .cls-24, .cls-25, .cls-26, .cls-27, .cls-28, .cls-29, .cls-30 {
        stroke-width: 0px;
      }

      .cls-2 {
        fill: #fcf;
        mix-blend-mode: overlay;
        opacity: .15;
      }

      .cls-3 {
        fill: url(#Degradado_sin_nombre_1263-7);
      }

      .cls-3, .cls-17, .cls-19, .cls-20, .cls-25, .cls-28 {
        opacity: .3;
      }

      .cls-4 {
        opacity: .5;
      }

      .cls-4, .cls-10, .cls-31 {
        mix-blend-mode: multiply;
      }

      .cls-4, .cls-24 {
        fill: #3a66eb;
      }

      .cls-5 {
        fill: url(#Degradado_sin_nombre_1287);
      }

      .cls-6 {
        fill: url(#Degradado_sin_nombre_1282);
      }

      .cls-7 {
        fill: url(#Degradado_sin_nombre_1253);
      }

      .cls-8 {
        fill: url(#Degradado_sin_nombre_1282-3);
      }

      .cls-9 {
        fill: url(#Degradado_sin_nombre_1282-4);
      }

      .cls-32 {
        isolation: isolate;
      }

      .cls-10 {
        fill: #c19be0;
      }

      .cls-11 {
        fill: url(#Degradado_sin_nombre_1204-4);
      }

      .cls-33 {
        filter: url(#drop-shadow-1);
      }

      .cls-12 {
        fill: url(#Degradado_sin_nombre_1201);
      }

      .cls-13 {
        fill: #8989ce;
      }

      .cls-13, .cls-27 {
        mix-blend-mode: soft-light;
      }

      .cls-14 {
        fill: url(#Degradado_sin_nombre_1262);
      }

      .cls-15 {
        fill: url(#Degradado_sin_nombre_1204);
      }

      .cls-16 {
        fill: url(#Degradado_sin_nombre_1263-2);
        filter: url(#drop-shadow-2);
      }

      .cls-17 {
        fill: url(#Degradado_sin_nombre_1263-3);
      }

      .cls-18, .cls-27 {
        fill: #fff;
      }

      .cls-34 {
        stroke: url(#Degradado_sin_nombre_1282-6);
      }

      .cls-34, .cls-35, .cls-36 {
        fill: none;
        stroke-miterlimit: 10;
        stroke-width: .5px;
      }

      .cls-19 {
        fill: url(#Degradado_sin_nombre_1263-6);
      }

      .cls-20 {
        fill: url(#Degradado_sin_nombre_1263-8);
      }

      .cls-21 {
        fill: url(#Degradado_sin_nombre_1253-3);
      }

      .cls-22 {
        fill: url(#Degradado_sin_nombre_1253-2);
      }

      .cls-23 {
        fill: url(#Degradado_sin_nombre_1263);
      }

      .cls-35 {
        stroke: url(#Degradado_sin_nombre_1282-7);
      }

      .cls-25 {
        fill: url(#Degradado_sin_nombre_1263-4);
      }

      .cls-26 {
        fill: url(#Degradado_sin_nombre_1282-2);
      }

      .cls-27 {
        opacity: .45;
      }

      .cls-36 {
        stroke: url(#Degradado_sin_nombre_1282-5);
      }

      .cls-28 {
        fill: url(#Degradado_sin_nombre_1263-5);
      }

      .cls-29 {
        fill: #49b8f6;
      }

      .cls-30 {
        fill: url(#Degradado_sin_nombre_1204-3);
      }
    </style>
    <linearGradient id="Degradado_sin_nombre_1253" data-name="Degradado sin nombre 1253" x1="1699.67" y1="3983.16" x2="1885.54" y2="3983.16" gradientTransform="translate(1694.86 -3933.59) rotate(45)" gradientUnits="userSpaceOnUse">
      <stop offset="0" stop-color="#81005f"/>
      <stop offset=".01" stop-color="#81005f" stop-opacity=".94"/>
      <stop offset=".06" stop-color="#81005f" stop-opacity=".69"/>
      <stop offset=".12" stop-color="#81005f" stop-opacity=".49"/>
      <stop offset=".18" stop-color="#81005f" stop-opacity=".34"/>
      <stop offset=".26" stop-color="#81005f" stop-opacity=".23"/>
      <stop offset=".34" stop-color="#81005f" stop-opacity=".17"/>
      <stop offset=".5" stop-color="#81005f" stop-opacity=".15"/>
    </linearGradient>
    <linearGradient id="Degradado_sin_nombre_1253-2" data-name="Degradado sin nombre 1253" x1="1715.3" y1="3983.16" x2="1869.91" y2="3983.16" xlink:href="#Degradado_sin_nombre_1253"/>
    <linearGradient id="Degradado_sin_nombre_1253-3" data-name="Degradado sin nombre 1253" x1="1722.48" y1="3983.16" x2="1862.73" y2="3983.16" xlink:href="#Degradado_sin_nombre_1253"/>
    <linearGradient id="Degradado_sin_nombre_1201" data-name="Degradado sin nombre 1201" x1="81.9" y1="150.45" x2="209.94" y2="150.45" gradientTransform="translate(278.65 -11.76) rotate(83.42)" gradientUnits="userSpaceOnUse">
      <stop offset="0" stop-color="#ef278d"/>
      <stop offset="1" stop-color="#6a008c"/>
    </linearGradient>
    <linearGradient id="Degradado_sin_nombre_1287" data-name="Degradado sin nombre 1287" x1="49.33" y1="220.89" x2="147.32" y2="122.9" gradientUnits="userSpaceOnUse">
      <stop offset="0" stop-color="#fff"/>
      <stop offset=".19" stop-color="#fff"/>
      <stop offset=".25" stop-color="#fffcf9"/>
      <stop offset=".31" stop-color="#fff6e8"/>
      <stop offset=".39" stop-color="#ffeccc"/>
      <stop offset=".48" stop-color="#ffdda5"/>
      <stop offset=".57" stop-color="#ffcb73"/>
      <stop offset=".63" stop-color="#ffbf53"/>
      <stop offset="1" stop-color="#ff7d30"/>
    </linearGradient>
    <linearGradient id="Degradado_sin_nombre_1262" data-name="Degradado sin nombre 1262" x1="26.82" y1="199.9" x2="80.55" y2="146.18" gradientUnits="userSpaceOnUse">
      <stop offset=".24" stop-color="#fff"/>
      <stop offset=".9" stop-color="#fff" stop-opacity="0"/>
    </linearGradient>
    <filter id="drop-shadow-1" filterUnits="userSpaceOnUse">
      <feOffset dx="0" dy="0"/>
      <feGaussianBlur result="blur" stdDeviation="4"/>
      <feFlood flood-color="#ce3b2c" flood-opacity=".25"/>
      <feComposite in2="blur" operator="in"/>
      <feComposite in="SourceGraphic"/>
    </filter>
    <linearGradient id="Degradado_sin_nombre_1204" data-name="Degradado sin nombre 1204" x1="1922.81" y1="3975.35" x2="1942.77" y2="3975.35" gradientTransform="translate(1915.06 -3918.12) rotate(49.05)" gradientUnits="userSpaceOnUse">
      <stop offset="0" stop-color="#fff"/>
      <stop offset="1" stop-color="#d8a0ff"/>
    </linearGradient>
    <linearGradient id="Degradado_sin_nombre_1263" data-name="Degradado sin nombre 1263" x1="8119.42" y1="3975.34" x2="8139.38" y2="3975.34" gradientTransform="translate(8477.67 3643.81) rotate(-130.95) scale(1 -1)" gradientUnits="userSpaceOnUse">
      <stop offset="0" stop-color="#d8a0ff"/>
      <stop offset="1" stop-color="#fff"/>
    </linearGradient>
    <linearGradient id="Degradado_sin_nombre_1204-2" data-name="Degradado sin nombre 1204" x1="1884.53" y1="3950.91" x2="1932.01" y2="3950.91" xlink:href="#Degradado_sin_nombre_1204"/>
    <linearGradient id="Degradado_sin_nombre_1263-2" data-name="Degradado sin nombre 1263" x1="1908.27" y1="3999.78" x2="1908.27" y2="3955.35" gradientTransform="translate(1915.06 -3918.12) rotate(49.05)" xlink:href="#Degradado_sin_nombre_1263"/>
    <filter id="drop-shadow-2" filterUnits="userSpaceOnUse">
      <feOffset dx="0" dy="0"/>
      <feGaussianBlur result="blur-2" stdDeviation="2.41"/>
      <feFlood flood-color="#8c4dad" flood-opacity=".2"/>
      <feComposite in2="blur-2" operator="in"/>
      <feComposite in="SourceGraphic"/>
    </filter>
    <linearGradient id="Degradado_sin_nombre_1204-3" data-name="Degradado sin nombre 1204" x1="4660.94" y1="4901.25" x2="4679.9" y2="4904.18" gradientTransform="translate(4697.02 -4958.62) rotate(85.27)" xlink:href="#Degradado_sin_nombre_1204"/>
    <linearGradient id="Degradado_sin_nombre_1204-4" data-name="Degradado sin nombre 1204" x1="176.86" y1="182.32" x2="204.58" y2="210.04" gradientTransform="translate(178.49 -77.15) rotate(41.63)" xlink:href="#Degradado_sin_nombre_1204"/>
    <linearGradient id="Degradado_sin_nombre_1263-3" data-name="Degradado sin nombre 1263" x1="177.61" y1="187.14" x2="184.18" y2="193.71" gradientTransform="matrix(1,0,0,1,0,0)" xlink:href="#Degradado_sin_nombre_1263"/>
    <linearGradient id="Degradado_sin_nombre_1263-4" data-name="Degradado sin nombre 1263" x1="187.04" y1="182.05" x2="189.56" y2="184.58" gradientTransform="matrix(1,0,0,1,0,0)" xlink:href="#Degradado_sin_nombre_1263"/>
    <linearGradient id="Degradado_sin_nombre_1263-5" data-name="Degradado sin nombre 1263" x1="201.25" y1="183.84" x2="203.77" y2="186.36" gradientTransform="matrix(1,0,0,1,0,0)" xlink:href="#Degradado_sin_nombre_1263"/>
    <linearGradient id="Degradado_sin_nombre_1263-6" data-name="Degradado sin nombre 1263" x1="180.56" y1="206.54" x2="183.09" y2="209.07" gradientTransform="matrix(1,0,0,1,0,0)" xlink:href="#Degradado_sin_nombre_1263"/>
    <linearGradient id="Degradado_sin_nombre_1263-7" data-name="Degradado sin nombre 1263" x1="192.88" y1="186.14" x2="197.91" y2="191.17" gradientTransform="matrix(1,0,0,1,0,0)" xlink:href="#Degradado_sin_nombre_1263"/>
    <linearGradient id="Degradado_sin_nombre_1263-8" data-name="Degradado sin nombre 1263" x1="199.35" y1="204.61" x2="204.69" y2="209.96" gradientTransform="matrix(1,0,0,1,0,0)" xlink:href="#Degradado_sin_nombre_1263"/>
    <linearGradient id="Degradado_sin_nombre_1282" data-name="Degradado sin nombre 1282" x1="1610.44" y1="-3552.66" x2="1660.97" y2="-3552.66" gradientTransform="translate(1393.32 3741.85) rotate(-45)" gradientUnits="userSpaceOnUse">
      <stop offset="0" stop-color="#f3af2d"/>
      <stop offset="0" stop-color="#f3ad2e"/>
      <stop offset=".24" stop-color="#f57f5b"/>
      <stop offset=".46" stop-color="#f85b7f"/>
      <stop offset=".67" stop-color="#f94198"/>
      <stop offset=".85" stop-color="#fa31a7"/>
      <stop offset="1" stop-color="#fb2cad"/>
    </linearGradient>
    <linearGradient id="Degradado_sin_nombre_1282-2" data-name="Degradado sin nombre 1282" x1="1572.06" y1="-3308.04" x2="1643.18" y2="-3308.04" xlink:href="#Degradado_sin_nombre_1282"/>
    <linearGradient id="Degradado_sin_nombre_1282-3" data-name="Degradado sin nombre 1282" x1="1632.46" y1="-3290.11" x2="1659.61" y2="-3290.11" xlink:href="#Degradado_sin_nombre_1282"/>
    <linearGradient id="Degradado_sin_nombre_1282-4" data-name="Degradado sin nombre 1282" x1="1787.15" y1="-3424.38" x2="1814.3" y2="-3424.38" xlink:href="#Degradado_sin_nombre_1282"/>
    <linearGradient id="Degradado_sin_nombre_1282-5" data-name="Degradado sin nombre 1282" x1="71.5" y1="265.81" x2="77.75" y2="265.81" gradientTransform="matrix(1,0,0,1,0,0)" xlink:href="#Degradado_sin_nombre_1282"/>
    <linearGradient id="Degradado_sin_nombre_1282-6" data-name="Degradado sin nombre 1282" x1="255.04" y1="171.53" x2="261.29" y2="171.53" gradientTransform="matrix(1,0,0,1,0,0)" xlink:href="#Degradado_sin_nombre_1282"/>
    <linearGradient id="Degradado_sin_nombre_1282-7" data-name="Degradado sin nombre 1282" x1="197.76" y1="37.58" x2="204.01" y2="37.58" gradientTransform="matrix(1,0,0,1,0,0)" xlink:href="#Degradado_sin_nombre_1282"/>
  </defs>
  <g class="cls-32">
    <g id="Layer_2" data-name="Layer 2">
      <g id="OBJECTS">
        <g>
          <g>
            <path class="cls-7" d="m145.92,243.38c-24.82,0-48.16-9.67-65.71-27.22-17.53-17.53-27.18-40.87-27.18-65.71s9.65-48.18,27.18-65.71c17.55-17.55,40.89-27.22,65.71-27.22s48.16,9.67,65.71,27.22c17.53,17.53,27.18,40.87,27.18,65.71s-9.65,48.18-27.18,65.71c-17.55,17.55-40.89,27.22-65.71,27.22Z"/>
            <path class="cls-22" d="m145.92,227.75c-20.65,0-40.06-8.04-54.66-22.64-30.14-30.14-30.14-79.18,0-109.32,14.6-14.6,34.01-22.64,54.66-22.64s40.06,8.04,54.66,22.64c30.14,30.14,30.14,79.18,0,109.32-14.6,14.6-34.01,22.64-54.66,22.64Z"/>
            <circle class="cls-21" cx="145.92" cy="150.45" r="70.12"/>
            <g>
              <circle class="cls-12" cx="145.92" cy="150.45" r="64.02" transform="translate(-20.27 278.16) rotate(-83.42)"/>
              <g>
                <path class="cls-2" d="m168.85,164.42c-10.3-3.97-21.8-1.72-32.74-.26s-23.18,1.69-31.75-5.26c-8.89-7.22-11.23-20.1-19.11-28.31,2.3-7.04,5.78-13.54,10.21-19.26.56.77,1.14,1.53,1.79,2.24,8.79,9.61,23.79,9.36,36.71,7.8,12.93-1.55,27.4-3.3,37.73,4.62,5.92,4.53,9.36,11.49,13.51,17.68,5.91,8.8,13.78,16.47,23.3,21.11-2.04,8.9-5.91,17.11-11.23,24.17-9.4-8.53-16.65-19.98-28.42-24.51Z"/>
                <path class="cls-2" d="m90.6,182.34c11.23-3.77,23.74-7.85,34.38-2.72,6.19,2.98,10.58,8.61,15.49,13.42,7.21,7.06,16.06,12.66,25.89,14.93,1.93.45,3.91.75,5.9.92-7.99,3.58-16.83,5.59-26.15,5.59-23.74,0-44.45-12.93-55.5-32.13Z"/>
                <path class="cls-2" d="m144.66,108.17c-7.79-4.03-12.22-12.44-18.46-18.57,6.27-2.05,12.96-3.17,19.91-3.17,16.17,0,30.93,6.01,42.2,15.89-4.74,1.25-9.43,3.05-14.04,4.66-9.6,3.35-20.57,5.86-29.6,1.19Z"/>
              </g>
            </g>
            <g>
              <path class="cls-5" d="m150.18,125.77c-3.22,3.31-6.6,6.69-9.96,10.01-3.37,3.33-6.76,6.65-10.17,9.94-16.29,15.75-32,31.58-51.2,44.19-9.38,6.16-35.37,21.26-43.08,10.03l1.68,9.08c16.65,7.15,43.21-6.14,56.73-15.43,16.15-11.09,32.37-22.61,47.47-34.63,3.76-2.99,7.51-6.02,11.24-9.06,3.74-3.06,7.42-6.09,11.19-9.29l-13.92-14.84Z"/>
              <path class="cls-14" d="m50.44,156.6c-3.3,3.49-6.45,7.16-9.37,11.03-2.91,3.87-5.61,7.95-7.85,12.36-1.12,2.21-2.12,4.5-2.92,6.92-.78,2.42-1.37,4.98-1.49,7.71-.1,2.71.32,5.71,1.85,8.43.76,1.34,1.77,2.57,2.94,3.59,1.18,1.01,2.5,1.81,3.86,2.39l-1.68-9.08c-.95-1.39-1.45-3.26-1.53-5.3-.08-2.04.23-4.22.75-6.38.54-2.16,1.28-4.33,2.16-6.45,1.77-4.25,4.05-8.36,6.58-12.32,2.54-3.96,5.34-7.78,8.33-11.46,5.98-7.36,12.65-14.21,19.79-20.54-7.6,5.78-14.81,12.12-21.43,19.11Z"/>
            </g>
            <g class="cls-33">
              <g>
                <path class="cls-15" d="m195.41,127.88l-4.91,20.68c-.59,2.48-2.23,4.58-4.49,5.76l-21.59,11.19c-.7.36-1.54-.16-1.51-.95l.55-16.78,31.95-19.9Z"/>
                <path class="cls-23" d="m168.6,96.98l-21.17,1.95c-2.54.23-4.85,1.56-6.33,3.64l-14.12,19.8c-.46.64-.06,1.55.73,1.63l16.69,1.82,24.2-28.83Z"/>
              </g>
              <path class="cls-1" d="m210.09,88.06c-24.99-6.24-60.08,9-65.44,36.37-.17.85.06,1.73.62,2.38l17.33,19.97c.57.65,1.4,1,2.27.95,27.86-1.46,47.89-34.05,45.23-59.67Z"/>
              <path class="cls-24" d="m140.78,135.91h22.4v3.55c0,.9-.73,1.63-1.63,1.63h-19.14c-.9,0-1.63-.73-1.63-1.63v-3.55h0Z" transform="translate(156.96 -67.06) rotate(49.05)"/>
              <path class="cls-16" d="m147.34,147.04l-4.48-5.16,17.81-16.13c2.16-1.96,4.53-3.69,7.05-5.16l10.28-6,1.32,1.52-7.39,9.33c-1.81,2.29-3.86,4.38-6.1,6.25l-18.48,15.36Z"/>
              <path class="cls-10" d="m198.53,127.48c5.53-7.66,9.37-16.7,10.96-25.7-.98.51-1.86,1.25-2.53,2.23-2.15,3.16-4.26,6.35-6.33,9.57-1.16,1.82-3.8,2.01-5.54.34-4.66-4.49-8.92-9.4-12.71-14.65-1.41-1.96-.86-4.55,1.11-5.44,3.48-1.6,6.93-3.24,10.36-4.92,1.06-.52,1.92-1.29,2.56-2.19-9.13.3-18.62,2.83-26.98,7.23,7.43,12.87,17.4,24.36,29.1,33.53Z"/>
              <path class="cls-10" d="m174.15,93.82c.08.14.18.27.28.39.79.92,2.12,1.24,3.26.73l11.36-4.99c1.1-.48,1.74-1.61,1.66-2.76-.2.03-.4.05-.6.08.04.89-.46,1.75-1.31,2.12l-11.36,4.99c-1.01.45-2.21.07-2.78-.88l-.96-1.6c-.19.08-.37.16-.56.24l1.01,1.67Z"/>
              <path class="cls-10" d="m199.37,122.88c-.13-.1-.24-.21-.34-.33-.79-.92-.92-2.27-.27-3.33l6.54-10.54c.64-1.02,1.84-1.49,2.96-1.26-.05.19-.11.39-.16.58-.87-.16-1.8.21-2.29,1l-6.54,10.54c-.58.94-.38,2.18.48,2.88l1.45,1.18c-.11.17-.21.34-.32.52l-1.51-1.23Z"/>
              <path class="cls-30" d="m196.62,109.46c-5.28.44-9.91-3.49-10.35-8.77-.44-5.28,3.49-9.91,8.77-10.35,5.28-.44,9.91,3.49,10.35,8.77.44,5.28-3.49,9.91-8.77,10.35Z"/>
              <path class="cls-24" d="m201.75,104.92c-2.77,3.27-7.68,3.68-10.95.91-3.27-2.77-3.68-7.68-.91-10.95,2.77-3.27,7.68-3.68,10.95-.91,3.27,2.77,3.68,7.68.91,10.95Z"/>
              <g>
                <path class="cls-18" d="m200.72,95.68c-.11-.12-.23-.24-.35-.36-.12-.12-.29-.18-.46-.18-.17,0-.33.07-.45.2-.23.24-.24.62-.02.87l.04.04c.1.09.19.19.27.29.12.13.27.21.45.22.17.01.34-.05.47-.16.26-.23.29-.64.05-.91Zm-1.11.38h0s0,0,0,0Z"/>
                <path class="cls-18" d="m199.13,94.58c-.05-.16-.17-.3-.32-.38-1.59-.8-3.46-.92-5.13-.31-.33.12-.51.49-.39.83.03.07.07.14.12.2.17.2.46.27.71.18,1.36-.49,2.81-.4,4.1.25.15.08.33.09.49.04.16-.05.3-.17.38-.32.08-.15.09-.33.04-.5Z"/>
              </g>
              <path class="cls-4" d="m201.75,104.92c1.17-1.38,1.77-3.06,1.83-4.74-.15.15-.3.3-.44.45-.64.72-1.25,1.52-2.13,1.92-.81.37-1.8.33-2.58-.1-1.12-.62-1.74-1.93-2.91-2.46-1.42-.64-3.16.09-4.59-.52-.68-.29-1.2-.85-1.6-1.47-.28-.44-.5-.93-.53-1.45-1.48,3.11-.76,6.93,1.99,9.26,3.27,2.77,8.18,2.37,10.95-.91Z"/>
            </g>
            <g>
              <circle class="cls-11" cx="190.72" cy="196.18" r="19.6" transform="translate(-82.16 176.24) rotate(-41.63)"/>
              <g class="cls-31">
                <path class="cls-17" d="m185.54,190.42c0,2.56-2.08,4.64-4.64,4.64s-4.64-2.08-4.64-4.64,2.08-4.64,4.64-4.64,4.64,2.08,4.64,4.64Z"/>
                <path class="cls-25" d="m190.09,183.31c0,.99-.8,1.79-1.79,1.79s-1.79-.8-1.79-1.79.8-1.79,1.79-1.79,1.79.8,1.79,1.79Z"/>
                <circle class="cls-28" cx="202.51" cy="185.1" r="1.79"/>
                <path class="cls-19" d="m183.61,207.8c0,.99-.8,1.79-1.79,1.79s-1.79-.8-1.79-1.79.8-1.79,1.79-1.79,1.79.8,1.79,1.79Z"/>
                <path class="cls-3" d="m198.95,188.66c0,1.96-1.59,3.55-3.55,3.55s-3.55-1.59-3.55-3.55,1.59-3.55,3.55-3.55,3.55,1.59,3.55,3.55Z"/>
                <path class="cls-20" d="m208.7,204.07c-1.2-.95-2.72-1.52-4.37-1.52-3.89,0-7.04,3.15-7.04,7.04,0,1.68.59,3.23,1.58,4.44,4.38-1.99,7.9-5.55,9.84-9.96Z"/>
              </g>
            </g>
          </g>
          <g>
            <path class="cls-13" d="m77.47,33.91c.88.88-49.93,56.73-51.81,58.6-1.88,1.88-4.92,1.88-6.8,0-1.88-1.88-1.88-4.92,0-6.8s57.72-52.69,58.6-51.81Z"/>
            <path class="cls-6" d="m55.71,55.29c.54.54-30.44,34.59-31.59,35.73-1.14,1.14-3,1.14-4.14,0-1.14-1.14-1.14-3,0-4.14,1.14-1.14,35.19-32.13,35.73-31.59Z"/>
          </g>
          <g>
            <path class="cls-13" d="m246.72,210.74c1.24,1.24-70.27,79.84-72.92,82.48-2.64,2.64-6.92,2.64-9.56,0-2.64-2.64-2.64-6.92,0-9.56,2.64-2.64,81.24-74.16,82.48-72.92Z"/>
            <path class="cls-26" d="m216.09,240.84c.76.76-42.85,48.68-44.46,50.29-1.61,1.61-4.22,1.61-5.83,0-1.61-1.61-1.61-4.22,0-5.83,1.61-1.61,49.53-45.21,50.29-44.46Z"/>
          </g>
          <g>
            <path class="cls-13" d="m252.08,230.42c.47.47-26.82,30.47-27.83,31.48s-2.64,1.01-3.65,0c-1.01-1.01-1.01-2.64,0-3.65,1.01-1.01,31.01-28.3,31.48-27.83Z"/>
            <path class="cls-8" d="m240.39,241.91c.29.29-16.35,18.58-16.97,19.19-.61.61-1.61.61-2.23,0-.61-.61-.61-1.61,0-2.23.61-.61,18.91-17.26,19.19-16.97Z"/>
          </g>
          <g>
            <path class="cls-13" d="m266.51,26.09c.47.47-26.82,30.47-27.83,31.48s-2.64,1.01-3.65,0-1.01-2.64,0-3.65c1.01-1.01,31.01-28.3,31.48-27.83Z"/>
            <path class="cls-9" d="m254.82,37.58c.29.29-16.35,18.58-16.97,19.19s-1.61.61-2.23,0c-.61-.61-.61-1.61,0-2.23.61-.61,18.91-17.26,19.19-16.97Z"/>
          </g>
          <path class="cls-29" d="m79.73,54.31h-1.54v-1.54c0-.54-.43-.97-.97-.97h0c-.54,0-.97.43-.97.97v1.54h-1.54c-.54,0-.97.43-.97.97h0c0,.54.43.97.97.97h1.54v1.54c0,.54.43.97.97.97h0c.54,0,.97-.43.97-.97v-1.54h1.54c.54,0,.97-.43.97-.97h0c0-.54-.43-.97-.97-.97Z"/>
          <path class="cls-29" d="m6,116.91h-1.54v-1.54c0-.54-.43-.97-.97-.97h0c-.54,0-.97.43-.97.97v1.54H.97c-.54,0-.97.43-.97.97h0c0,.54.43.97.97.97h1.54v1.54c0,.54.43.97.97.97h0c.54,0,.97-.43.97-.97v-1.54h1.54c.54,0,.97-.43.97-.97h0c0-.54-.43-.97-.97-.97Z"/>
          <path class="cls-29" d="m251.32,96.03h-1.54v-1.54c0-.54-.43-.97-.97-.97h0c-.54,0-.97.43-.97.97v1.54h-1.54c-.54,0-.97.43-.97.97h0c0,.54.43.97.97.97h1.54v1.54c0,.54.43.97.97.97h0c.54,0,.97-.43.97-.97v-1.54h1.54c.54,0,.97-.43.97-.97h0c0-.54-.43-.97-.97-.97Z"/>
          <path class="cls-29" d="m136.27,261.89h-1.54v-1.54c0-.54-.43-.97-.97-.97h0c-.54,0-.97.43-.97.97v1.54h-1.54c-.54,0-.97.43-.97.97h0c0,.54.43.97.97.97h1.54v1.54c0,.54.43.97.97.97h0c.54,0,.97-.43.97-.97v-1.54h1.54c.54,0,.97-.43.97-.97h0c0-.54-.43-.97-.97-.97Z"/>
          <path class="cls-29" d="m237.34,291.23h-1.54v-1.54c0-.54-.43-.97-.97-.97h0c-.54,0-.97.43-.97.97v1.54h-1.54c-.54,0-.97.43-.97.97h0c0,.54.43.97.97.97h1.54v1.54c0,.54.43.97.97.97h0c.54,0,.97-.43.97-.97v-1.54h1.54c.54,0,.97-.43.97-.97h0c0-.54-.43-.97-.97-.97Z"/>
          <g>
            <path class="cls-27" d="m81.62,295.64c0,1.22-.99,2.21-2.21,2.21s-2.21-.99-2.21-2.21.99-2.21,2.21-2.21,2.21.99,2.21,2.21Z"/>
            <circle class="cls-27" cx="102.51" cy="262.14" r="3.68"/>
            <path class="cls-27" d="m25.67,222.02c0,1.22-.99,2.21-2.21,2.21s-2.21-.99-2.21-2.21.99-2.21,2.21-2.21,2.21.99,2.21,2.21Z"/>
            <circle class="cls-27" cx="90.08" cy="245.07" r="2.21"/>
            <circle class="cls-27" cx="266.6" cy="129.27" r="2.21"/>
            <path class="cls-27" d="m69.97,63.91c0,1.22-.99,2.21-2.21,2.21s-2.21-.99-2.21-2.21.99-2.21,2.21-2.21,2.21.99,2.21,2.21Z"/>
            <circle class="cls-27" cx="224.79" cy="150.58" r="3.68"/>
            <path class="cls-27" d="m25.15,33.56c0,2.03-1.65,3.68-3.68,3.68s-3.68-1.65-3.68-3.68,1.65-3.68,3.68-3.68,3.68,1.65,3.68,3.68Z"/>
            <circle class="cls-27" cx="258.16" cy="241.9" r="3.68"/>
            <circle class="cls-27" cx="258.16" cy="274.02" r="2.21"/>
            <path class="cls-27" d="m152.81,34.88c0,.73-.59,1.32-1.32,1.32s-1.32-.59-1.32-1.32.59-1.32,1.32-1.32,1.32.59,1.32,1.32Z"/>
            <circle class="cls-27" cx="137.43" cy="18.9" r="3.68"/>
            <path class="cls-27" d="m213.91,1.32c0,.73-.59,1.32-1.32,1.32s-1.32-.59-1.32-1.32.59-1.32,1.32-1.32,1.32.59,1.32,1.32Z"/>
            <path class="cls-27" d="m16.78,47.52c0,.73-.59,1.32-1.32,1.32s-1.32-.59-1.32-1.32.59-1.32,1.32-1.32,1.32.59,1.32,1.32Z"/>
            <circle class="cls-27" cx="255.96" cy="150.58" r="2.21"/>
            <circle class="cls-27" cx="161.09" cy="224.22" r="2.21"/>
          </g>
          <circle class="cls-36" cx="74.62" cy="265.81" r="2.87"/>
          <circle class="cls-34" cx="258.16" cy="171.53" r="2.87"/>
          <path class="cls-35" d="m203.76,37.58c0,1.59-1.29,2.87-2.87,2.87s-2.87-1.29-2.87-2.87,1.29-2.87,2.87-2.87,2.87,1.29,2.87,2.87Z"/>
        </g>
      </g>
    </g>
  </g>
</svg>